#!OML:ASF C:\Vicon Data\Big\jianyuan-12\jianyuan\Session 1\Capture.male.ASF
:FULLY-SPECIFIED
:DEGREES
70
root -8.850679 16.885216 -18.942280 5.056829 -12.565678 5.819643
lowerback -8.896013 -0.618520 -3.329263 
upperback 2.300159 -0.399662 -0.454860 
thorax 7.449419 -0.333013 1.333859 
lowerneck -1.392264 -9.232503 -6.004641 
upperneck 7.554101 -12.899234 10.532357 
head 3.555127 -6.188798 3.599873 
rclavicle 0.000000 0.000000 
rhumerus -36.466672 -29.335104 -76.520606 
rradius 34.828582 
rwrist 36.713397 
rhand -22.592973 -3.989426 
rfingers 0.000000 
rthumb 3.836142 -33.934662 
lclavicle 0.000000 0.000000 
lhumerus -40.062936 34.893734 71.862087 
lradius 28.061769 
lwrist -53.154959 
lhand -7.985214 2.160666 
lfingers 0.000000 
lthumb 17.923100 31.354764 
rfemur -13.292478 2.337024 22.731835 
rtibia 26.536179 
rfoot -26.540441 -3.093115 
rtoes -11.547869 
lfemur -31.756977 2.396393 -22.275836 
ltibia 61.326915 
lfoot -16.014997 6.711119 
ltoes -18.118499 
71
root -8.868357 16.884139 -18.872253 5.010740 -12.952086 5.848825
lowerback -8.781759 -0.438317 -3.263318 
upperback 2.290748 -0.157788 -0.634793 
thorax 7.360560 -0.205569 1.144534 
lowerneck -1.074034 -9.199271 -5.690923 
upperneck 7.252143 -12.854910 10.631822 
head 3.394736 -6.172324 3.607279 
rclavicle 0.000000 0.000000 
rhumerus -36.302279 -29.469267 -76.810092 
rradius 34.948826 
rwrist 36.673963 
rhand -22.518120 -3.859349 
rfingers 0.000000 
rthumb 3.908458 -33.803264 
lclavicle 0.000000 0.000000 
lhumerus -40.370497 34.465441 71.664132 
lradius 28.118228 
lwrist -53.170083 
lhand -8.216490 2.438191 
lfingers 0.000000 
lthumb 17.700509 31.652526 
rfemur -12.915399 2.609301 22.713718 
rtibia 26.414945 
rfoot -26.698947 -3.022808 
rtoes -11.742100 
lfemur -32.097285 2.051866 -22.227488 
ltibia 60.451593 
lfoot -16.436502 6.792841 
ltoes -16.162996 
72
root -8.882538 16.882521 -18.802397 4.951328 -13.274707 5.848812
lowerback -8.650994 -0.341112 -3.174047 
upperback 2.317187 -0.037557 -0.706562 
thorax 7.307266 -0.140375 1.037077 
lowerneck -1.189128 -9.304252 -5.542139 
upperneck 7.386020 -12.996418 10.470543 
head 3.445767 -6.236437 3.519480 
rclavicle 0.000000 0.000000 
rhumerus -35.965497 -29.344372 -77.087433 
rradius 35.053691 
rwrist 36.607187 
rhand -22.349694 -3.808167 
rfingers 0.000000 
rthumb 4.071113 -33.748985 
lclavicle 0.000000 0.000000 
lhumerus -40.759943 34.603872 71.350276 
lradius 28.102385 
lwrist -53.432338 
lhand -8.199129 2.212871 
lfingers 0.000000 
lthumb 17.717236 31.425695 
rfemur -12.493946 2.820459 22.718181 
rtibia 26.239577 
rfoot -26.791522 -2.945571 
rtoes -12.040486 
lfemur -32.418796 1.559955 -22.148113 
ltibia 59.515946 
lfoot -16.769209 6.962724 
ltoes -15.424093 
73
root -8.896923 16.878044 -18.729970 4.841112 -13.606493 5.766476
lowerback -8.499156 -0.358792 -3.054761 
upperback 2.385570 -0.085694 -0.621867 
thorax 7.294271 -0.161403 1.052111 
lowerneck -1.383888 -9.295133 -5.824956 
upperneck 7.620257 -12.979931 10.338469 
head 3.556164 -6.229464 3.509077 
rclavicle 0.000000 0.000000 
rhumerus -35.427530 -28.835708 -77.366546 
rradius 35.088307 
rwrist 36.726348 
rhand -22.253354 -3.794500 
rfingers 0.000000 
rthumb 4.164107 -33.733570 
lclavicle 0.000000 0.000000 
lhumerus -41.264291 35.064675 71.108461 
lradius 28.212580 
lwrist -53.326528 
lhand -8.008444 2.055523 
lfingers 0.000000 
lthumb 17.900744 31.251729 
rfemur -11.981893 2.923258 22.803245 
rtibia 26.033875 
rfoot -26.861667 -2.750146 
rtoes -12.524717 
lfemur -32.619305 1.190997 -22.030617 
ltibia 58.488811 
lfoot -17.096043 7.352149 
ltoes -16.137761 
74
root -8.912765 16.876221 -18.656206 4.759076 -13.924978 5.813029
lowerback -8.440346 -0.268622 -3.047288 
upperback 2.449274 0.038185 -0.686115 
thorax 7.323348 -0.099610 0.998330 
lowerneck -1.329848 -9.230437 -5.715144 
upperneck 7.471918 -12.885130 10.330551 
head 3.487287 -6.185864 3.502090 
rclavicle 0.000000 0.000000 
rhumerus -35.032275 -28.772245 -77.608158 
rradius 35.074023 
rwrist 36.832575 
rhand -22.466171 -3.579345 
rfingers 0.000000 
rthumb 3.958592 -33.522309 
lclavicle 0.000000 0.000000 
lhumerus -41.617138 35.014769 70.957914 
lradius 28.319166 
lwrist -53.240659 
lhand -8.157834 2.158593 
lfingers 0.000000 
lthumb 17.756980 31.367800 
rfemur -11.521754 3.025627 22.749523 
rtibia 25.824056 
rfoot -26.944725 -2.589566 
rtoes -12.773068 
lfemur -32.828769 0.850099 -22.019315 
ltibia 57.369662 
lfoot -17.413631 7.614139 
ltoes -15.554151 
75
root -8.933707 16.876078 -18.582077 4.705329 -14.276981 5.846092
lowerback -8.383058 -0.132087 -3.058137 
upperback 2.483887 0.228502 -0.790080 
thorax 7.319947 -0.004325 0.922758 
lowerneck -1.136391 -9.233116 -5.446508 
upperneck 7.179667 -12.878854 10.337965 
head 3.350715 -6.189070 3.480037 
rclavicle 0.000000 0.000000 
rhumerus -34.669344 -28.546012 -78.090450 
rradius 35.265935 
rwrist 36.554322 
rhand -22.532735 -4.058600 
rfingers 0.000000 
rthumb 3.894326 -34.002792 
lclavicle 0.000000 0.000000 
lhumerus -41.922803 34.933250 70.717521 
lradius 28.297761 
lwrist -53.272144 
lhand -8.373886 2.276887 
lfingers 0.000000 
lthumb 17.549040 31.504840 
rfemur -11.078190 3.115257 22.727876 
rtibia 25.625668 
rfoot -27.033148 -2.367402 
rtoes -12.882390 
lfemur -33.004877 0.494863 -21.950436 
ltibia 56.161700 
lfoot -17.351463 7.859966 
ltoes -16.875062 
76
root -8.949504 16.872205 -18.508392 4.819124 -14.612184 5.804380
lowerback -8.451651 -0.134755 -2.999656 
upperback 2.470503 0.215885 -0.729466 
thorax 7.345401 -0.009841 0.951928 
lowerneck -1.158918 -9.121685 -5.673188 
upperneck 7.178383 -12.718517 10.289779 
head 3.351930 -6.117997 3.508571 
rclavicle 0.000000 0.000000 
rhumerus -34.167987 -28.007486 -78.378738 
rradius 35.302245 
rwrist 36.168368 
rhand -22.470982 -3.967817 
rfingers 0.000000 
rthumb 3.953987 -33.910898 
lclavicle 0.000000 0.000000 
lhumerus -42.380899 35.198562 70.559473 
lradius 28.368518 
lwrist -52.757046 
lhand -8.266784 2.283809 
lfingers 0.000000 
lthumb 17.652095 31.502482 
rfemur -10.821081 3.093498 22.751122 
rtibia 25.410136 
rfoot -27.015295 -2.069244 
rtoes -13.068470 
lfemur -33.346488 0.202781 -21.864804 
ltibia 54.869369 
lfoot -17.143120 8.279490 
ltoes -18.932087 
77
root -8.963730 16.865325 -18.433704 4.796392 -14.842232 5.781512
lowerback -8.380044 -0.137751 -2.891442 
upperback 2.499016 0.198002 -0.735298 
thorax 7.335188 -0.013653 0.882220 
lowerneck -1.234766 -9.098988 -5.750316 
upperneck 7.256349 -12.683949 10.205413 
head 3.384298 -6.102079 3.491887 
rclavicle 0.000000 0.000000 
rhumerus -33.827986 -27.788131 -78.601925 
rradius 35.451707 
rwrist 36.316556 
rhand -22.398989 -3.898583 
rfingers 0.000000 
rthumb 4.023527 -33.840330 
lclavicle 0.000000 0.000000 
lhumerus -42.826799 35.402900 70.319146 
lradius 28.455721 
lwrist -52.522783 
lhand -8.169541 2.178370 
lfingers 0.000000 
lthumb 17.745687 31.388612 
rfemur -10.368517 3.107215 22.765972 
rtibia 25.120862 
rfoot -27.025642 -1.895075 
rtoes -13.245096 
lfemur -33.506031 -0.234027 -21.775172 
ltibia 53.507659 
lfoot -17.319725 8.505751 
ltoes -18.837279 
